<svg width="20" height="20" viewBox="0 0 20 20" fill="none" xmlns="http://www.w3.org/2000/svg">
<rect width="20" height="20" rx="10" fill="#FFE615"/>
<path fill-rule="evenodd" clip-rule="evenodd" d="M10.5833 12.5004H8.5V5.83376H12.6667V9.58126H13.5V5.41709C13.5 5.18709 13.3138 5.00043 13.0833 5.00043H6.41667C6.18625 5.00043 6 5.18709 6 5.41709V12.9171C6 13.1471 6.18625 13.3338 6.41667 13.3338H10.5833V12.5004ZM7.66667 12.5004H6.83333V5.83374H7.66667V12.5004ZM14.2142 11.7862L13.5 10.0004L12.7854 11.7862H11L12.545 13.0904L11.7142 15.0004L13.5 13.8196L15.2854 15.0004L14.455 13.0904L16 11.7862H14.2142Z" fill="#333332"/>
</svg>
