<svg width="35" height="35" viewBox="0 0 35 35" fill="none" xmlns="http://www.w3.org/2000/svg">
<path d="M1 17.5C1 8.3873 8.3873 1 17.5 1H34V17.5C34 26.6127 26.6127 34 17.5 34C8.3873 34 1 26.6127 1 17.5Z" fill="#0070c0"/>
<path d="M1 17.5C1 8.3873 8.3873 1 17.5 1H34V17.5C34 26.6127 26.6127 34 17.5 34C8.3873 34 1 26.6127 1 17.5Z" stroke="white" stroke-width="2"/>
<path d="M15.1562 13.4375C16.1875 13.4375 17.0677 13.1927 17.7969 12.7031H19.6016V23H17.2188V15.1484C16.5469 15.388 15.8594 15.5078 15.1562 15.5078V13.4375Z" fill="white"/>
</svg>
