<svg width="35" height="35" viewBox="0 0 35 35" fill="none" xmlns="http://www.w3.org/2000/svg">
<path d="M1 17.5C1 8.3873 8.3873 1 17.5 1H34V17.5C34 26.6127 26.6127 34 17.5 34C8.3873 34 1 26.6127 1 17.5Z" fill="#D2373C"/>
<path d="M1 17.5C1 8.3873 8.3873 1 17.5 1H34V17.5C34 26.6127 26.6127 34 17.5 34C8.3873 34 1 26.6127 1 17.5Z" stroke="white" stroke-width="2"/>
<path d="M18.2578 19V16.1953L16.3438 19H18.2578ZM18.2578 21.2109H13.6328V19L17.9219 12.7031H20.5547V19H21.7109V21.2109H20.5547V23H18.2578V21.2109Z" fill="white"/>
</svg>
