<svg width="35" height="35" viewBox="0 0 35 35" fill="none" xmlns="http://www.w3.org/2000/svg">
<path d="M1 17.5C1 8.3873 8.3873 1 17.5 1H34V17.5C34 26.6127 26.6127 34 17.5 34C8.3873 34 1 26.6127 1 17.5Z" fill="white"/>
<path d="M1 17.5C1 8.3873 8.3873 1 17.5 1H34V17.5C34 26.6127 26.6127 34 17.5 34C8.3873 34 1 26.6127 1 17.5Z" stroke="black" stroke-width="2"/>
<path d="M18.6328 19.875C18.6328 18.9635 17.5625 18.5078 15.4219 18.5078H13.5938L14.1953 12.6719H20.5781V14.8906H16.3047L16.1641 16.3203C17.7839 16.3776 18.9948 16.6693 19.7969 17.1953C20.599 17.7214 21 18.5365 21 19.6406C21 20.7448 20.6589 21.6094 19.9766 22.2344C19.2891 22.849 18.3411 23.1562 17.1328 23.1562C16.3776 23.1562 15.6432 23.0443 14.9297 22.8203C14.2161 22.5964 13.625 22.3203 13.1562 21.9922L13.7031 19.9609L13.7656 19.9062C14.1719 20.1562 14.7344 20.3958 15.4531 20.625C16.1719 20.8542 16.724 20.9661 17.1094 20.9609C17.4948 20.9609 17.8438 20.875 18.1562 20.7031C18.474 20.5312 18.6328 20.2552 18.6328 19.875Z" fill="black"/>
</svg>
