<svg width="35" height="35" viewBox="0 0 35 35" fill="none" xmlns="http://www.w3.org/2000/svg">
<path d="M1 17.5C1 8.3873 8.3873 1 17.5 1H34V17.5C34 26.6127 26.6127 34 17.5 34C8.3873 34 1 26.6127 1 17.5Z" fill="white"/>
<path d="M1 17.5C1 8.3873 8.3873 1 17.5 1H34V17.5C34 26.6127 26.6127 34 17.5 34C8.3873 34 1 26.6127 1 17.5Z" stroke="#00b050" stroke-width="2"/>
<path d="M18.5625 15.8828C18.5625 15.1276 18.1641 14.75 17.3672 14.75C16.5703 14.75 15.7943 14.9505 15.0391 15.3516C14.8724 15.4401 14.737 15.5078 14.6328 15.5547L14.5703 15.5078V13.4062C15.487 12.8333 16.5677 12.5469 17.8125 12.5469C18.7292 12.5469 19.4792 12.7917 20.0625 13.2812C20.6458 13.7708 20.9375 14.5208 20.9375 15.5312C20.9427 16.5521 20.6589 17.5156 20.0859 18.4219C19.513 19.3281 18.7995 20.1172 17.9453 20.7891H21.3828V23H14.0859V20.7891C14.8047 20.5339 15.5078 20.1302 16.1953 19.5781C16.8828 19.026 17.4505 18.4167 17.8984 17.75C18.3464 17.0833 18.5677 16.4609 18.5625 15.8828Z" fill="#00b050"/>
</svg>
