<svg width="35" height="35" viewBox="0 0 35 35" fill="none" xmlns="http://www.w3.org/2000/svg">
<path d="M1 17.5C1 8.3873 8.3873 1 17.5 1H34V17.5C34 26.6127 26.6127 34 17.5 34C8.3873 34 1 26.6127 1 17.5Z" fill="white"/>
<path d="M1 17.5C1 8.3873 8.3873 1 17.5 1H34V17.5C34 26.6127 26.6127 34 17.5 34C8.3873 34 1 26.6127 1 17.5Z" stroke="#FFE615" stroke-width="2"/>
<path d="M21.3203 20.1484C21.3203 20.8411 21.1172 21.4141 20.7109 21.8672C20.3047 22.3203 19.8047 22.6484 19.2109 22.8516C18.6172 23.0547 18.0286 23.1562 17.4453 23.1562C16.862 23.1562 16.2474 23.0573 15.6016 22.8594C14.9661 22.6615 14.4297 22.4089 13.9922 22.1016L14.5391 20.2578L14.6016 20.1953C14.987 20.4297 15.4349 20.6146 15.9453 20.75C16.4557 20.8854 16.9401 20.9531 17.3984 20.9531C17.8568 20.9531 18.2318 20.8594 18.5234 20.6719C18.8151 20.4844 18.9609 20.2422 18.9609 19.9453C18.9609 19.6484 18.776 19.3698 18.4062 19.1094C18.0365 18.849 17.5156 18.7214 16.8438 18.7266H15.7109V16.5781H16.9297C17.4036 16.5781 17.8099 16.4583 18.1484 16.2188C18.487 15.9792 18.6562 15.7396 18.6562 15.5C18.6615 15 18.2318 14.7526 17.3672 14.7578C16.5026 14.7578 15.7083 14.9714 14.9844 15.3984L14.9219 15.3672L14.4297 13.5C15.4974 12.8646 16.5339 12.5469 17.5391 12.5469C18.5391 12.5469 19.375 12.7604 20.0469 13.1875C20.7188 13.6146 21.0547 14.2943 21.0547 15.2266C21.0547 16.1589 20.6823 16.9609 19.9375 17.6328C20.8594 18.2474 21.3203 19.0859 21.3203 20.1484Z" fill="#9F5804"/>
</svg>
